<?xml version="1.0" encoding="UTF-8" standalone="no"?>
<!DOCTYPE svg PUBLIC "-//W3C//DTD SVG 1.1//EN" "http://www.w3.org/Graphics/SVG/1.1/DTD/svg11.dtd">
<svg width="100%" height="100%" viewBox="0 0 4000 4000" version="1.1" xmlns="http://www.w3.org/2000/svg" xmlns:xlink="http://www.w3.org/1999/xlink" xml:space="preserve" xmlns:serif="http://www.serif.com/" style="fill-rule:evenodd;clip-rule:evenodd;stroke-linejoin:round;stroke-miterlimit:2;">
    <g transform="matrix(26.5592,0,0,26.5592,-5560.68,-6086.41)">
        <circle cx="284.673" cy="304.467" r="73.193" style="fill:rgb(224,239,244);"/>
        <path d="M284.673,231.274C325.069,231.274 357.866,264.071 357.866,304.467C357.866,344.864 325.069,377.661 284.673,377.661C244.276,377.661 211.479,344.864 211.479,304.467C211.479,264.071 244.276,231.274 284.673,231.274ZM284.673,232.529C324.377,232.529 356.611,264.764 356.611,304.467C356.611,344.171 324.377,376.406 284.673,376.406C244.969,376.406 212.734,344.171 212.734,304.467C212.734,264.764 244.969,232.529 284.673,232.529Z"/>
    </g>
    <g id="Balken" transform="matrix(1.19596,0,0,1.19596,-391.911,-391.911)">
        <g transform="matrix(1.06083,0,0,0.719536,-73.9217,623.905)">
            <rect x="870" y="916" width="2170" height="515"/>
            <path d="M3062.99,916C3062.99,897.281 3052.7,882.106 3040,882.106L870,882.106C857.303,882.106 847.011,897.281 847.011,916L847.011,1431C847.011,1449.72 857.303,1464.89 870,1464.89L3040,1464.89C3052.7,1464.89 3062.99,1449.72 3062.99,1431L3062.99,916ZM3040,916L870,916L870,1431L3040,1431L3040,916Z"/>
        </g>
        <g transform="matrix(1.06083,0,0,0.719536,-73.9217,1155.62)">
            <rect x="870" y="916" width="2170" height="515"/>
            <path d="M3062.99,916C3062.99,897.281 3052.7,882.106 3040,882.106L870,882.106C857.303,882.106 847.011,897.281 847.011,916L847.011,1431C847.011,1449.72 857.303,1464.89 870,1464.89L3040,1464.89C3052.7,1464.89 3062.99,1449.72 3062.99,1431L3062.99,916ZM3040,916L870,916L870,1431L3040,1431L3040,916Z"/>
        </g>
        <g transform="matrix(1.06083,0,0,0.719536,-73.9217,1687.34)">
            <rect x="870" y="916" width="2170" height="515"/>
            <path d="M3062.99,916C3062.99,897.281 3052.7,882.106 3040,882.106L870,882.106C857.303,882.106 847.011,897.281 847.011,916L847.011,1431C847.011,1449.72 857.303,1464.89 870,1464.89L3040,1464.89C3052.7,1464.89 3062.99,1449.72 3062.99,1431L3062.99,916ZM3040,916L870,916L870,1431L3040,1431L3040,916Z"/>
        </g>
    </g>
</svg>
