<?xml version="1.0" encoding="UTF-8" standalone="no"?>
<!DOCTYPE svg PUBLIC "-//W3C//DTD SVG 1.1//EN" "http://www.w3.org/Graphics/SVG/1.1/DTD/svg11.dtd">
<svg width="100%" height="100%" viewBox="0 0 1000 1000" version="1.1" xmlns="http://www.w3.org/2000/svg" xmlns:xlink="http://www.w3.org/1999/xlink" xml:space="preserve" xmlns:serif="http://www.serif.com/" style="fill-rule:evenodd;clip-rule:evenodd;stroke-linecap:round;stroke-linejoin:round;stroke-miterlimit:1.5;">
    <g id="Pfeil" transform="matrix(0.539959,0,0,0.539959,398.83,143.085)">
        <g transform="matrix(5.19244,0,0,5.19244,-871.805,-1356.59)">
            <circle cx="284.673" cy="304.467" r="73.193" style="fill:rgb(224,239,244);stroke:black;stroke-width:1.43px;"/>
        </g>
        <g id="Pfeil1" serif:id="Pfeil" transform="matrix(3.66478,0,0,3.77863,-846.229,-1215.16)">
            <g transform="matrix(0.785657,1.68866,-1.57742,0.733903,-216.099,-1281.34)">
                <path d="M934.978,78L958,101L914,101L934.978,78Z" style="fill:rgb(171,0,140);stroke:black;stroke-width:1.09px;"/>
            </g>
            <g transform="matrix(2.0232,-0.675784,0.633387,1.89627,-1531.08,836.69)">
                <path d="M929.792,78L958,101L914,101L929.792,78Z" style="fill:rgb(171,0,140);stroke:black;stroke-width:0.97px;"/>
            </g>
            <g transform="matrix(-0.569221,0.839499,-0.834533,-0.565854,966.938,-321.384)">
                <path d="M927.956,78L958,101L914,101L927.956,78Z" style="fill:rgb(171,0,140);stroke:black;stroke-width:2px;"/>
            </g>
        </g>
    </g>
    <g id="Puzzel" transform="matrix(0.539959,0,0,0.539959,20.83,509.708)">
        <g transform="matrix(5.19244,0,0,5.19244,-1009.7,-1222.84)">
            <circle cx="284.673" cy="304.467" r="73.193" style="fill:rgb(224,239,244);stroke:black;stroke-width:1.43px;"/>
        </g>
        <g transform="matrix(6.75273,0,0,6.75273,-4547.15,-142.327)">
            <path d="M711,53L737,53C736.792,40.698 751.971,40.491 753,53L778,53L778,67C764.832,67.535 765.339,81.54 778,82L778,96L753,96C752.68,82.919 737.353,82.454 737.015,96L711,96L711,83C696.449,82.569 697.003,67.657 711,67L711,53Z" style="fill:rgb(245,99,13);stroke:black;stroke-width:1.1px;"/>
        </g>
    </g>
    <g id="Kolben" transform="matrix(0.539959,0,0,0.539959,398.912,509.708)">
        <g transform="matrix(5.19244,0,0,5.19244,-871.956,-1222.84)">
            <circle cx="284.673" cy="304.467" r="73.193" style="fill:rgb(224,239,244);stroke:black;stroke-width:1.43px;"/>
        </g>
        <g id="Kolben1" serif:id="Kolben" transform="matrix(0.139799,0,0,0.126876,167.474,302.632)">
            <g id="Hintergrund" transform="matrix(1.19698,0,0,1.19698,822.638,-2091.89)">
                <path d="M1520.8,616.564L1510.58,1459.84L1073.1,2492.6L1690.09,2520.32L2784.94,2491.57L2355.64,1458.94L2357.68,613.37L1520.8,616.564" style="fill:white;"/>
            </g>
            <g id="Flüssigkeit" transform="matrix(1.19698,0,0,1.19698,822.638,-2091.89)">
                <path d="M2731.7,2355.22L3118.21,3267.76C3276.88,3611.89 2942.93,3613.11 2942.93,3613.11L922.625,3612.79C611.383,3585.36 728.231,3325.28 728.231,3325.28L1120.57,2396.39C1120.57,2396.39 1393.58,2462.21 1529.86,2431.71C1671.78,2399.95 1866.51,2380.29 1999.8,2402.92C2156.99,2429.61 2193.95,2445.75 2393.33,2392.97C2591.24,2340.59 2731.7,2355.22 2731.7,2355.22Z" style="fill:rgb(45,243,0);stroke:black;stroke-width:23.18px;"/>
            </g>
            <g id="Umrandung" transform="matrix(1.19698,0,0,1.19698,822.638,-2091.89)">
                <g transform="matrix(1.1273,0,0,1,-246.246,-5.68434e-14)">
                    <path d="M1518.13,610.55L2350.63,610.55" style="fill:none;stroke:black;stroke-width:43.26px;"/>
                </g>
                <path d="M2103.15,3614.84L982.8,3615.05C885.297,3615.3 593.235,3600.86 754.453,3260.99L1471.24,1565.65C1514.33,1454.87 1518.14,1403.56 1518.13,1349.99C1518.12,1280.87 1518.13,610.55 1518.13,610.55" style="fill:none;stroke:black;stroke-width:46.36px;"/>
                <g transform="matrix(-1,0,0,1,3869.12,-5.68434e-14)">
                    <path d="M2103.15,3614.84L982.8,3615.05C885.297,3615.3 593.235,3600.86 754.453,3260.99L1471.24,1565.65C1514.33,1454.87 1518.14,1403.56 1518.13,1349.99C1518.12,1280.87 1518.13,610.55 1518.13,610.55" style="fill:none;stroke:black;stroke-width:46.36px;"/>
                </g>
            </g>
        </g>
    </g>
    <g id="Lupe" transform="matrix(0.539959,0,0,0.539959,19.7836,143.085)">
        <g transform="matrix(5.19244,0,0,5.19244,-1007.76,-1356.59)">
            <circle cx="284.673" cy="304.467" r="73.193" style="fill:rgb(224,239,244);stroke:black;stroke-width:1.43px;"/>
        </g>
        <g id="Lupe1" serif:id="Lupe" transform="matrix(3.61178,0.164305,-0.164305,3.61178,-3126.15,687.487)">
            <g transform="matrix(1.50061,6.18901e-17,5.81632e-17,1.59273,150.865,-265.093)">
                <path d="M560.947,63.905L607.19,88.417" style="fill:none;stroke:black;stroke-width:5.96px;"/>
            </g>
            <g transform="matrix(1.50061,6.18901e-17,5.81632e-17,1.59273,150.865,-265.093)">
                <path d="M560.947,63.905L607.19,88.417" style="fill:none;stroke:rgb(134,147,154);stroke-width:4.63px;"/>
            </g>
            <g transform="matrix(0.612501,-0.0278635,0.0278635,0.612501,811.439,-447.93)">
                <circle cx="215.958" cy="441.525" r="65.964" style="fill:rgb(50,204,254);"/>
            </g>
            <g transform="matrix(-1.83269,0.266721,-0.266721,-1.83269,1976.47,-221.36)">
                <path d="M541.944,74.056C541.944,74.056 552.603,75.202 557.34,72.54C554.759,74.509 549.145,78.416 541.944,74.056Z" style="fill:white;stroke:white;stroke-opacity:0;stroke-width:1.11px;"/>
            </g>
            <g transform="matrix(0.612501,-0.0278635,0.0278635,0.612501,811.439,-447.93)">
                <circle cx="215.958" cy="441.525" r="65.964" style="fill:none;stroke:black;stroke-width:15.04px;"/>
            </g>
            <g transform="matrix(0.612501,-0.0278635,0.0278635,0.612501,811.439,-447.93)">
                <circle cx="215.958" cy="441.525" r="65.964" style="fill:none;stroke:rgb(134,147,154);stroke-width:11.7px;"/>
            </g>
        </g>
    </g>
</svg>
